<svg width="1000" height="1036" viewBox="0 0 1000 1036" fill="none" xmlns="http://www.w3.org/2000/svg">
<circle cx="499.726" cy="517.433" r="439.957" fill="#FFBE16" fill-opacity="0.2"/>
<path d="M583.884 862.514L497.759 1001.97L420.048 857.656L583.884 862.514Z" fill="#FFB932"/>
<path d="M180.274 601.405L35.7428 524.097L174.959 437.583L180.274 601.405Z" fill="#FFB932"/>
<path d="M819.726 601.139L964.257 523.831L825.041 437.317L819.726 601.139Z" fill="#FFB932"/>
<path d="M661.197 274.43L820.625 236.372L773.87 393.47L661.197 274.43Z" fill="#FFB932"/>
<path d="M337.893 274.43L178.464 236.372L225.22 393.47L337.893 274.43Z" fill="#FFB932"/>
<path d="M348.831 791.724L244.915 664.968L187.099 818.34L348.831 791.724Z" fill="#FFB932"/>
<path d="M659.839 780.656L763.755 653.9L821.571 807.273L659.839 780.656Z" fill="#FFB932"/>
<path d="M418.845 179.427L497.248 35.4873L582.702 175.356L418.845 179.427Z" fill="#FFB932"/>
<circle cx="500.28" cy="521.307" r="369.674" fill="#FFD029"/>
<path fill-rule="evenodd" clip-rule="evenodd" d="M369.174 331.701C368.994 331.485 368.81 331.27 368.622 331.057C358.013 319.031 339.664 317.882 327.638 328.491C315.611 339.099 314.462 357.449 325.071 369.475C325.258 369.688 325.448 369.897 325.641 370.103L268.389 420.606C264.247 424.26 263.851 430.579 267.505 434.721L312.142 485.323C312.076 485.379 312.011 485.437 311.945 485.494C299.919 496.103 298.77 514.452 309.379 526.479C319.987 538.505 338.337 539.654 350.363 529.046C350.429 528.988 350.493 528.93 350.558 528.872L395.813 580.175C399.467 584.316 405.786 584.712 409.928 581.059L467.07 530.653C456.676 518.623 457.887 500.439 469.837 489.898C481.787 479.356 499.98 480.424 510.619 492.237L567.76 441.831C571.901 438.178 572.297 431.859 568.644 427.717L523.391 376.417C511.364 386.993 493.04 385.834 482.441 373.819C471.843 361.805 472.98 343.479 484.973 332.866L440.335 282.263C436.682 278.121 430.362 277.725 426.221 281.379L369.174 331.701Z" fill="white"/>
<path fill-rule="evenodd" clip-rule="evenodd" d="M509.172 572.404C508.979 572.198 508.789 571.989 508.602 571.777C497.993 559.75 499.142 541.401 511.169 530.792C523.195 520.183 541.545 521.332 552.153 533.359C552.341 533.571 552.525 533.786 552.705 534.002L609.957 483.498C614.099 479.845 620.418 480.241 624.072 484.382L668.709 534.985C668.774 534.927 668.839 534.869 668.904 534.812C680.931 524.203 699.28 525.352 709.889 537.379C720.498 549.405 719.348 567.754 707.322 578.363C707.257 578.421 707.191 578.478 707.126 578.535L752.38 629.837C756.034 633.978 755.638 640.298 751.496 643.951L694.355 694.357C683.716 682.543 665.523 681.475 653.572 692.017C641.622 702.558 640.411 720.743 650.806 732.773L593.664 783.178C589.523 786.832 583.204 786.436 579.55 782.294L534.297 730.994C546.29 720.381 547.427 702.055 536.829 690.04C526.23 678.025 507.906 676.867 495.879 687.443L451.241 636.84C447.588 632.699 447.984 626.379 452.125 622.726L509.172 572.404Z" fill="white"/>
</svg>
